<svg viewBox="0 0 32 32" xmlns="http://www.w3.org/2000/svg"><path d="M23 18H2a1 1 0 0 1-1-1v-5a1 1 0 0 1 1-1h21" fill="#8f0425" class="fill-00bbff"></path><path d="M30 12h-4V6" fill="none" stroke="#000000" stroke-linecap="round" stroke-linejoin="round" stroke-width="2px" class="stroke-000000"></path><circle cx="7" cy="24" r="3" fill="none" stroke="#000000" stroke-linecap="round" stroke-linejoin="round" stroke-width="2px" class="stroke-000000"></circle><circle cx="24" cy="24" r="3" fill="none" stroke="#000000" stroke-linecap="round" stroke-linejoin="round" stroke-width="2px" class="stroke-000000"></circle><path d="M22 18H2a1 1 0 0 1-1-1v-5a1 1 0 0 1 1-1h18M1 21h1l2-2.7" fill="none" stroke="#000000" stroke-linecap="round" stroke-linejoin="round" stroke-width="2px" class="stroke-000000"></path><path d="m10 18.2 2 2.8h7l2-3h6l2 3h2V8a3 3 0 0 0-3-3h-5v12M30 16h-1" fill="none" stroke="#000000" stroke-linecap="round" stroke-linejoin="round" stroke-width="2px" class="stroke-000000"></path></svg>